<svg width="715" height="715" viewBox="0 0 715 715" fill="none" xmlns="http://www.w3.org/2000/svg">
<path fill-rule="evenodd" clip-rule="evenodd" d="M163.113 207.16L390.674 93.6687L392.302 272.866C392.496 294.27 380.466 313.91 361.311 323.464L320.707 343.714C302.098 352.995 279.878 351.195 263.006 339.038L113.98 231.665L126.636 180.769L163.113 207.16ZM163.148 207.146L317.281 318.839C322.465 322.595 329.306 323.159 335.034 320.302C340.762 317.446 344.428 311.641 344.546 305.241L348.058 114.925L163.148 207.146Z" fill="white"/>
<path d="M580.686 247.926L580.688 247.968L416.467 344.181C410.944 347.417 407.678 353.455 407.99 359.848C408.303 366.241 412.144 371.931 417.956 374.612L590.784 454.336L593.111 501.914L428.381 431.359C408.705 422.932 395.558 404.021 394.512 382.641L392.295 337.322C391.279 316.551 401.861 296.93 419.775 286.369L578.003 193.087L619.516 225.137L580.686 247.926Z" fill="white"/>
<path fill-rule="evenodd" clip-rule="evenodd" d="M343.93 613.596L119.051 494.879L263.693 389.082C280.969 376.446 303.94 374.768 322.869 384.761L362.995 405.944C381.385 415.652 392.877 434.755 392.837 455.55L392.485 639.228L343.755 658.619L343.93 613.596ZM343.904 613.575L344.788 423.228C344.818 416.827 341.287 410.94 335.627 407.952C329.966 404.964 323.113 405.369 317.844 409.004L161.172 517.108L343.904 613.575Z" fill="white"/>
</svg>
