<svg width="129" height="31" viewBox="0 0 129 31" fill="none" xmlns="http://www.w3.org/2000/svg">
<path d="M120.973 21.1592L125.683 8.54688H128.379L121.097 27.0156C120.105 29.5566 119.516 30.5478 117.285 30.5479H114.248V28.2246H116.51C117.966 28.2246 118.215 27.8525 118.804 26.3652L119.578 24.4434L113.411 8.54688H116.107L120.973 21.1592ZM8.63379 15.6934C9.54103 15.0299 10.7472 14.9413 11.7412 15.4658L13.8496 16.5791C14.8149 17.089 15.4178 18.0919 15.416 19.1836L15.3984 28.832L12.8389 29.8506L12.8477 27.4854L1.03613 21.25L8.63379 15.6934ZM12.4121 16.6846C12.1149 16.5279 11.7551 16.5494 11.4785 16.7402L3.25 22.418L12.8477 27.4844L12.8945 17.4873C12.8961 17.1511 12.7094 16.8415 12.4121 16.6846ZM49.8779 2.47266C54.6811 2.47266 58.1835 5.26155 58.9893 9.75488H56.1377C55.301 6.74908 53.0077 4.95215 49.7539 4.95215C45.1988 4.95236 42.2861 8.48488 42.2861 13.5049C42.2862 18.4937 45.0749 22.0574 49.6299 22.0576C52.9766 22.0576 55.3017 20.2908 56.1074 17.2539H58.958C58.1523 21.7472 54.5573 24.5361 49.6611 24.5361C43.4326 24.536 39.5284 20.1362 39.5283 13.5049C39.5283 6.93542 43.5874 2.47281 49.8779 2.47266ZM68.1631 8.36035C72.6253 8.36035 75.538 11.1803 75.6621 15.8594C75.6621 16.2002 75.6316 16.5725 75.6006 16.9443H63.3291V17.1611C63.4221 20.167 65.3125 22.2744 68.3184 22.2744C70.5494 22.2743 72.2847 21.0968 72.8115 19.0518H75.3838C74.764 22.2125 72.1605 24.5361 68.5039 24.5361C63.7628 24.5361 60.6641 21.2824 60.6641 16.4482C60.6642 11.6452 63.7009 8.36041 68.1631 8.36035ZM85.6895 8.36035C89.2531 8.36036 92.0732 10.3128 92.0732 15.5498V24.3506H89.5322V15.7051C89.5322 12.4204 88.0137 10.6847 85.2559 10.6846C82.281 10.6846 80.4835 12.8847 80.4834 16.4482V24.3506H77.9424V8.54688H80.1426L80.4834 10.6846C81.4131 9.47604 83.0245 8.36035 85.6895 8.36035ZM98.4121 8.54688H102.502V10.8701H98.4121V20.1982C98.4121 21.5307 98.8768 22.0264 100.24 22.0264H102.75V24.3506H99.9922C96.9554 24.3506 95.8712 23.0182 95.8711 20.2295V10.8701H93.0195V8.54688H95.8711V4.11523H98.4121V8.54688ZM106.873 10.9326C107.617 9.72406 108.826 8.54688 111.646 8.54688H112.358V11.0254H111.088C107.772 11.0254 106.873 13.7839 106.873 16.2939V24.3506H104.332V8.54688H106.532L106.873 10.9326ZM27.3223 7.08301L25.2832 8.28027L25.2842 8.28223L16.6602 13.3359C16.3701 13.5059 16.1974 13.8224 16.2139 14.1582C16.2304 14.4939 16.4331 14.7928 16.7383 14.9336L25.8145 19.1211L25.9365 21.6201L17.2842 17.915C16.2508 17.4724 15.5599 16.4783 15.5049 15.3555L15.3877 12.9756C15.3344 11.8847 15.8912 10.8535 16.832 10.2988L25.1426 5.39941L27.3223 7.08301ZM68.1943 10.5918C65.8703 10.5918 63.7324 12.265 63.4844 14.8369H72.9355C72.6876 12.1101 70.8282 10.5918 68.1943 10.5918ZM15.3877 9.59082C15.3977 10.7147 14.7656 11.7464 13.7598 12.248L11.627 13.3115C10.6497 13.7987 9.48269 13.7046 8.59668 13.0664L0.769531 7.42676L1.43457 4.75293L11.4443 12.0049C11.7165 12.2017 12.0754 12.231 12.376 12.0811C12.6765 11.931 12.8686 11.6268 12.875 11.291L13.0605 1.29688L15.3027 0.177734L15.3877 9.59082Z" fill="white"/>
</svg>
